
<svg width="865" height="865" xmlns="http://www.w3.org/2000/svg" preserveAspectRatio="xMidYMid meet">
 <g>
  <title>Layer 1</title>
  <path stroke="null" d="m742.94324,795.94297c-0.72,0.72 -4.22,1.2 -8.8,1.2c-8.71,0 -10,-0.79 -10,-6.16c0,-2.75 0.54,-4.06 2,-4.84c1.94,-1.04 2,-2.09 2,-34c0,-32.19 -0.05,-32.95 -2.05,-34.03c-1.7,-0.91 -2,-1.9 -1.75,-5.78l0.3,-4.69l21.95,-0.27c21.81,-0.27 21.98,-0.25 27.21,2.3c9.58,4.69 14.7,13.54 14.72,25.47c0.01,9.08 -2.96,15.77 -9.48,21.35l-4.17,3.57l4.88,12.1c3.76,9.29 5.47,12.37 7.39,13.29c1.91,0.92 2.57,2.11 2.81,5.02c0.48,5.75 -0.86,6.67 -9.73,6.67c-4.64,0 -8.16,-0.48 -8.88,-1.2c-1.53,-1.53 -1.55,-7.26 -0.04,-9.69c0.96,-1.52 0.39,-3.75 -3.2,-12.48l-4.37,-10.63l-23.59,0l0,10.96c0,9.95 0.19,11.07 2,12.04c2.3,1.23 2.83,7.77 0.8,9.8zm-465.43,-1.91c-0.88,2.5 -1.26,2.62 -9.41,2.9c-9.55,0.32 -10.96,-0.38 -10.96,-5.42c0,-3.08 2.1,-6.37 4.07,-6.37c0.55,0 0.93,-13.31 0.93,-32.89l0,-32.88l-2.5,-1.64c-2.75,-1.8 -3.5,-7.19 -1.3,-9.39c1.5,-1.5 40.56,-1.67 45.87,-0.2c4.69,1.3 11.29,7.05 14.61,12.72c2.1,3.57 2.76,6.23 3.12,12.43c0.43,7.3 0.23,8.36 -2.71,14.31c-1.91,3.89 -4.68,7.63 -7.01,9.48l-3.85,3.04l5.14,12.5c2.82,6.88 5.66,12.51 6.31,12.51c3.61,0.02 5.91,8.02 3.12,10.81c-1.88,1.88 -16.27,1.58 -18.23,-0.37c-2.03,-2.04 -2.01,-6.29 0.05,-8.56c1.5,-1.66 1.3,-2.55 -2.91,-12.58l-4.53,-10.79l-12.09,-0.28l-12.09,-0.28l0,10.96c0,10.08 0.16,11.02 2,11.6c2.44,0.78 3.6,4.88 2.37,8.39zm-127.57,1.91c-1.88,1.88 -16.27,1.58 -18.23,-0.37c-2.32,-2.32 -1.91,-6.21 0.93,-8.84l2.5,-2.32l0,-64.54l-2.5,-2.32c-2.66,-2.46 -3.15,-5.32 -1.46,-8.48c0.96,-1.81 2.26,-1.93 20.25,-1.91c21.06,0.03 24.76,0.83 31.05,6.79c10.72,10.15 11.35,29.07 1.32,39.95c-6.73,7.3 -10.26,8.61 -24.41,9.06l-12.25,0.39l0,10.86c0,9.84 0.19,10.96 2,11.93c2.3,1.23 2.83,7.77 0.8,9.8zm403,0c-1.88,1.88 -16.27,1.58 -18.23,-0.37c-2.47,-2.47 -1.99,-7.11 0.93,-9.02l2.5,-1.64l0,-65.04l-2.5,-2.32c-2.66,-2.46 -3.15,-5.32 -1.46,-8.48c0.96,-1.81 2.27,-1.93 20.3,-1.93c18.7,0 19.42,0.08 24.44,2.58c16.09,8.02 20.18,30.09 8.12,43.8c-6.68,7.59 -10.32,8.98 -24.65,9.44l-12.25,0.39l0,10.67c0,9.44 0.23,10.87 2,12.39c2.25,1.93 2.73,7.6 0.8,9.53zm-452.01,0.18c-6.74,2.98 -15.09,3.43 -21.88,1.18c-10.68,-3.53 -16.93,-9.37 -22.11,-20.66c-2.16,-4.7 -2.3,-6.24 -2.3,-25.5l0,-20.5l3.11,-6.5c3.63,-7.58 8.87,-13.13 15.89,-16.84c4.39,-2.33 6.16,-2.65 14.5,-2.65c7.66,-0.01 10.42,0.41 14.22,2.17c5.76,2.66 12.71,9.62 15.26,15.29c2.11,4.66 1.54,6.66 -2.47,8.69c-3.23,1.64 -5.9,0.1 -9.51,-5.51c-4.31,-6.68 -9.96,-9.38 -18.71,-8.93c-8.74,0.44 -14.09,3.92 -18.04,11.72c-2.68,5.28 -2.75,5.86 -2.75,22.37c0,9.82 0.48,18.56 1.14,20.77c1.51,5.04 6.13,10.51 10.95,12.97c11.34,5.78 21.3,2.33 30.21,-10.47c2.04,-2.94 5.2,-3.32 8.48,-1.02c3.11,2.18 2.77,5.14 -1.26,11.14c-3.98,5.9 -8.12,9.35 -14.73,12.28zm407.47,0.12c-12.65,5.43 -27.84,1.75 -37.66,-9.12c-7.8,-8.64 -9.42,-16.65 -8.58,-42.48c0.44,-13.4 0.86,-16.73 2.61,-20.5c3.13,-6.74 9.69,-13.52 16.16,-16.69c5.04,-2.48 6.82,-2.81 15.21,-2.81c7.87,0.01 10.21,0.38 13.62,2.2c5.94,3.18 10.31,7.13 13.55,12.23c3.82,6.02 3.74,9.55 -0.25,11.61c-2.81,1.45 -3.28,1.45 -5.5,0c-1.33,-0.87 -2.42,-2.02 -2.42,-2.56c0,-1.84 -7.5,-9.29 -10.72,-10.63c-1.77,-0.74 -5.49,-1.35 -8.28,-1.35c-8.9,0 -15.92,4.31 -20.34,12.5c-1.99,3.69 -2.16,5.45 -2.16,22.5c0,17.06 0.17,18.81 2.16,22.5c6.06,11.21 17.98,16.18 27.84,11.6c4.82,-2.24 7.73,-4.92 11.04,-10.17c1.94,-3.06 3.11,-3.93 5.32,-3.93c3.29,0 6.14,2.71 6.14,5.85c0,5.31 -9.65,15.79 -17.74,19.25zm159.54,-0.3c-1.88,1.88 -16.27,1.58 -18.23,-0.37c-2.47,-2.47 -1.99,-7.11 0.93,-9.02l2.5,-1.64l0,-65.77l-9.88,0c-8.97,0 -9.93,0.18 -10.4,1.95c-0.64,2.47 -5.11,3.65 -8.29,2.2c-2.2,-1 -2.43,-1.71 -2.43,-7.43c0,-3.58 0.52,-6.84 1.2,-7.52c0.89,-0.89 10.26,-1.2 35.96,-1.2c2.36,0 4.57,0 6.64,0c22.14,-0.02 28.13,-0.03 29.69,2.6c0.59,0.97 0.56,2.3 0.53,4.13c-0.01,0.46 -0.02,0.96 -0.02,1.48c0,8.21 -5.44,11.44 -10.59,6.29c-2.31,-2.3 -3.22,-2.5 -11.71,-2.5l-9.2,0l0.28,32.75c0.27,31.29 0.37,32.81 2.25,34.12c2.25,1.57 2.75,7.95 0.77,9.93zm-51,0c-0.72,0.72 -4.23,1.2 -8.84,1.2c-6.14,0 -7.98,-0.36 -9.31,-1.83c-2.36,-2.62 -2.04,-5.9 0.85,-8.58l2.5,-2.32l0,-64.54l-2.5,-2.32c-2.66,-2.46 -3.15,-5.32 -1.46,-8.48c0.9,-1.68 2.15,-1.93 9.89,-1.93c9.63,0 10.07,0.27 10.07,6.09c0,1.69 -0.85,3.65 -2,4.64c-1.92,1.65 -2,2.95 -2,34.46c0,31.72 0.06,32.77 2,33.81c2.3,1.23 2.83,7.77 0.8,9.8zm-398,0c-1.88,1.88 -16.27,1.58 -18.23,-0.37c-2.47,-2.47 -1.99,-7.11 0.93,-9.02l2.5,-1.64l0,-65.54l-2.5,-1.64c-1.82,-1.19 -2.5,-2.52 -2.5,-4.91c0,-4.91 1.42,-5.68 10.5,-5.68c4.97,0 8.56,0.46 9.3,1.2c2.67,2.67 0.51,10.8 -2.87,10.8c-0.55,0 -0.93,13.36 -0.93,33c0,19.64 0.38,33 0.93,33c3.38,0 5.54,8.13 2.87,10.8zm181.54,-40.3l-0.74,1.1c-22.62,33.95 -27.28,40.94 -30.7,40.37c-0.93,-0.15 -1.76,-0.85 -2.83,-1.72c-1.19,-0.96 -2.23,-2.65 -2.31,-3.75c-0.08,-1.13 11.81,-20.06 27.17,-43.25c26.86,-40.54 27.38,-41.25 30.64,-41.25c3.31,0 6.43,2.78 6.43,5.72c0,0.71 -12.45,19.96 -27.66,42.78zm-152.54,40.3c-1.88,1.88 -16.27,1.58 -18.23,-0.37c-2.47,-2.47 -1.99,-7.11 0.93,-9.02l2.5,-1.64l0,-65.54l-2.5,-1.64c-1.82,-1.19 -2.5,-2.52 -2.5,-4.91c0,-4.91 1.42,-5.68 10.5,-5.68c4.97,0 8.56,0.46 9.3,1.2c2.16,2.16 1.44,7.47 -1.3,9.62l-2.5,1.97l0,32.6c0,19.4 0.38,32.61 0.93,32.61c3.38,0 5.54,8.13 2.87,10.8zm471,0c-1.88,1.88 -16.27,1.58 -18.23,-0.37c-2.47,-2.47 -1.99,-7.11 0.93,-9.02l2.5,-1.64l0,-65.54l-2.5,-1.64c-1.82,-1.19 -2.5,-2.52 -2.5,-4.91c0,-4.91 1.42,-5.68 10.5,-5.68c4.97,0 8.56,0.46 9.3,1.2c2.16,2.16 1.44,7.47 -1.3,9.62l-2.5,1.97l0,32.6c0,19.4 0.38,32.61 0.93,32.61c3.38,0 5.54,8.13 2.87,10.8zm-445.8,-76.8l0,32l13.25,0c14.8,-0.01 17.99,-1.05 21.67,-7.11c4.53,-7.45 3.41,-15.55 -2.93,-21.28l-4,-3.61l-27.99,0zm467,0l0,32l12.85,0c11.71,0 13.15,-0.2 16.23,-2.27c7.73,-5.21 10.02,-13.7 5.88,-21.81c-3.49,-6.85 -6.42,-7.91 -21.71,-7.92l-13.25,0zm-190.2,16l0.3,16l9.99,0c8.04,0 10.76,-0.39 13.94,-2.01c4.88,-2.5 7.97,-8.11 7.97,-14.5c0,-5.46 -1.81,-9.31 -6.04,-12.87c-2.97,-2.5 -3.65,-2.62 -14.79,-2.62l-11.67,0l0.3,16zm-402.8,-16l0,32l10.1,0c11.78,0 15.74,-1.4 19.46,-6.88c1.83,-2.69 2.44,-4.91 2.44,-8.9c0,-6.16 -1.67,-9.92 -6.04,-13.6c-2.96,-2.49 -3.67,-2.62 -14.54,-2.62l-11.42,0z" fill="#000000" id="svg_2"/>
  <path stroke="null" d="m819.92324,848.38297l-5.28,2.26l-380,0.23l-380,0.23l-6.73,-2.3c-13.15,-4.49 -22.42,-12.79 -28.64,-25.66l-3.63,-7.5l-0.26,-380.77l-0.25,-380.76l2.08,-6.24c5.27,-15.76 17.37,-27 33.62,-31.24c5.03,-1.31 54.09,-1.49 403.02,-1.49l397.29,0l-0.01,396.25c-0.01,27.7 -0.01,53.51 0,77.54c0,317.4 0,326.84 -4.12,333.87c-0.44,0.75 -0.93,1.47 -1.46,2.53c-2.99,5.9 -11.18,14.97 -16.63,18.43c-2.04,1.3 -6.09,3.38 -9,4.62zm-769.98,-2.17c5.47,1.75 20.72,1.82 382.86,1.88c367.44,0.05 377.32,0 383.25,-1.84c15.82,-4.93 28.04,-18.56 31,-34.59c0.76,-4.08 1.09,-53 1.09,-159.31c0,-145.73 -0.09,-153.39 -1.75,-152.7c-0.96,0.39 -2.52,0.94 -3.46,1.21c-1.74,0.5 -2.58,-0.74 -64.07,-94.2c-9.23,-14.03 -16.99,-26.07 -17.25,-26.76c-0.3,-0.8 3.66,-3.35 10.78,-6.96c12.94,-6.56 21.73,-12.27 33.75,-21.94c4.67,-3.76 8.78,-6.84 9.13,-6.85c0.34,-0.01 7.46,10.34 15.83,22.99c8.36,12.65 15.62,23 16.12,23c0.51,0 0.92,-2.3 0.92,-5.12c0,-4.87 -0.59,-6.01 -12.42,-23.92c-6.83,-10.34 -12.94,-19.77 -13.57,-20.95c-1.03,-1.92 -0.41,-2.92 6.17,-9.83c4.03,-4.22 10.14,-11.42 13.57,-15.99l6.25,-8.31l0,-237.2l-4.18,-5.59c-11.49,-15.38 -27.7,-31.86 -42.2,-42.9l-2.89,-2.19l-141.36,0c-77.76,0 -141.37,0.34 -141.37,0.75c0,0.41 2.69,4.78 5.97,9.71c0.62,0.93 1.18,1.76 1.69,2.5c2.13,3.12 3.27,4.78 3.2,6.4c-0.1,2.24 -2.55,4.37 -7.93,10.14c-20.36,21.85 -38.48,55.53 -46.44,86.35c-2.93,11.34 -5.49,25.28 -5.49,29.9c0,1.93 -0.51,3.25 -1.25,3.25c-0.68,0 -16.54,-3.17 -35.25,-7.05c-18.7,-3.87 -41.65,-8.62 -51,-10.55c-49.15,-10.15 -55.6,-11.22 -55.99,-13.38c-0.06,-0.32 0.02,-0.67 0.11,-1.07c0.07,-0.3 0.14,-0.63 0.17,-1c0.57,-6.6 4.46,-25.53 7.86,-38.24c6.35,-23.7 13.64,-43.21 24.18,-64.71c3.1,-6.32 5.8,-11.84 5.99,-12.25c0.53,-1.15 -302.6,-0.93 -308.7,0.23c-15.76,2.99 -29.82,16.23 -33.99,32.02c-0.92,3.45 -1.13,93.05 -0.91,384l0.28,379.5l2.35,5.82c2.72,6.76 12.14,17.42 18.86,21.36c2.41,1.41 6.95,3.39 10.09,4.39zm654.7,-304.1c-12.79,1.2 -45.54,1.14 -60,-0.11c-25.64,-2.21 -64.24,-10.69 -88,-19.35c-53.86,-19.61 -96.83,-47.26 -136.36,-87.73c-12.42,-12.72 -20.18,-21.82 -30.83,-36.12c-0.82,-1.09 -1.57,-2.09 -2.26,-3.01c-4.39,-5.84 -6.23,-8.28 -5.74,-10.11c0.43,-1.6 2.64,-2.73 6.49,-5.26c4.24,-2.78 31.43,-20.63 60.44,-39.67c29,-19.03 53.08,-34.61 53.5,-34.61c0.42,0 2.84,2.81 5.39,6.25c39.21,52.92 102.07,84.64 167.9,84.73c23.11,0.03 42.93,-3.09 64.41,-10.14c6.63,-2.18 12.61,-4.19 13.29,-4.48c0.76,-0.31 6.51,7.52 14.91,20.31c7.53,11.46 25.38,38.61 39.68,60.33c14.29,21.72 26.17,40.21 26.4,41.07c0.69,2.59 -27,14.71 -50.22,21.98c-28.05,8.79 -49.92,13.19 -79,15.92zm-300.79,-180.62c-14.73,9.71 -27.12,17.65 -27.52,17.65c-1.12,0 -13.27,-20.98 -20.12,-34.75c-26.26,-52.82 -39.54,-116.64 -36.09,-173.49c0.57,-9.49 1.32,-19.2 1.65,-21.56c0.57,-4 0.8,-4.27 3.24,-3.8c1.45,0.28 8.03,1.63 14.63,3.01c17.3,3.6 38.43,7.97 58.5,12.09c21.21,4.35 38.34,7.92 55,11.47l12.5,2.65l0.63,18.94c0.85,25.73 4.38,44.53 12.37,65.94c3.82,10.23 12.48,28.35 16.91,35.37c2.32,3.66 2.37,4.02 0.79,5.42c-1.47,1.29 -21.57,14.6 -56.2,37.2c-5.22,3.41 -21.56,14.15 -36.29,23.86zm352.46,14c-1,0.91 -2.1,1.65 -2.44,1.65c-2.03,0 -7.19,-6.94 -19.34,-26c-7.53,-11.83 -19.86,-31.17 -27.39,-43c-7.54,-11.83 -21.48,-33.65 -30.99,-48.5c-9.5,-14.85 -19.76,-30.96 -22.78,-35.81c-3.22,-5.15 -6.01,-8.6 -6.73,-8.33c-1.26,0.49 -18.95,11.59 -65.5,41.13c-14.58,9.25 -33.03,20.95 -41,26c-7.97,5.05 -18.14,11.5 -22.59,14.34c-4.45,2.85 -9.06,5.17 -10.23,5.17c-2.93,0 -5.65,-4.25 -4.32,-6.74c0.56,-1.04 10.15,-7.66 21.32,-14.73c99.34,-62.83 110.16,-69.9 108.25,-70.7c-1.06,-0.45 -11.83,-2.82 -23.93,-5.27c-25.67,-5.21 -84.67,-17.31 -102,-20.92c-6.6,-1.37 -16.72,-3.47 -22.5,-4.65c-11.72,-2.41 -14.66,-4.22 -13.62,-8.38c0.39,-1.52 1.57,-2.81 2.89,-3.14c1.22,-0.3 17.53,2.59 36.23,6.44c18.7,3.84 50.65,10.4 71,14.56c20.35,4.16 41.02,8.47 45.93,9.57c4.91,1.1 9.3,1.63 9.77,1.16c0.46,-0.46 -7.77,-14.31 -18.3,-30.77c-10.53,-16.46 -29.55,-46.24 -42.27,-66.17c-3.58,-5.61 -6.84,-10.71 -9.82,-15.37c-26.55,-41.57 -30,-46.96 -28.6,-48.93c0.36,-0.51 1.05,-0.79 1.75,-1.42c2.95,-2.68 6.12,-1.29 9.51,4.18c1.63,2.63 14.92,23.46 29.54,46.28c14.61,22.82 27.9,43.64 29.53,46.25c3.19,5.13 29.28,46.1 36.12,56.75c2.3,3.58 4.82,7.37 5.6,8.44c1.35,1.85 2.67,1.14 28.58,-15.32c14.94,-9.49 27.16,-17.48 27.16,-17.75c0,-1.15 -1,-2.82 -64.15,-107.02c-8.72,-14.38 -15.85,-27.04 -15.85,-28.12c0,-2.74 2.36,-4.44 5.63,-4.05c2.42,0.28 4.44,3.1 16.71,23.32c26.91,44.31 51,84.11 58.55,96.72c4.18,7 8.17,12.73 8.85,12.75c1.14,0.03 14.64,-8.42 90.76,-56.79c14.3,-9.08 27.17,-16.97 28.6,-17.51c6.94,-2.65 9.73,5.63 3.18,9.45c-15.98,9.34 -116.75,74.33 -116.68,75.25c0.06,0.67 6.08,11.1 13.37,23.18c18.27,30.25 18.96,31.3 20.86,31.84c0.92,0.26 19.89,4.16 42.17,8.68c43.82,8.89 45.28,9.38 43.43,14.66c-0.32,0.91 -0.48,1.65 -0.9,2.18c-1.62,2.01 -7.18,0.86 -40.8,-6.12c-2.13,-0.44 -4.36,-0.9 -6.72,-1.39c-14.56,-3.02 -27.47,-5.35 -28.68,-5.19c-2.06,0.27 -1.81,0.93 3.9,10.29c22.59,37.02 51.77,85.75 51.77,86.45c0,0.46 -0.82,1.85 -1.83,3.09c-1.39,1.71 -2.45,2.11 -4.38,1.62c-2.03,-0.51 -5.37,-5.3 -16.32,-23.4c-11.71,-19.36 -46.88,-77.18 -49.26,-80.99c-0.95,-1.52 -84.7,-19.12 -85.79,-18.02c-0.59,0.58 2.84,6.23 19.61,32.25c44.54,69.15 76.97,120.92 76.97,122.88c0,1.27 -0.82,3.05 -1.83,3.97zm-673.71,203.67l-0.48,0.31c-33.37,21.43 -36.59,23.5 -38.92,22.76c-0.26,-0.09 -0.51,-0.21 -0.79,-0.34c-2.5,-1.16 -3.62,-3.67 -2.71,-6.06c0.34,-0.87 28.81,-19.68 63.28,-41.8c34.46,-22.13 66.26,-42.54 70.66,-45.38c4.4,-2.84 20.15,-12.95 35,-22.47c14.85,-9.52 30.15,-19.36 34,-21.86c7.86,-5.12 42.08,-27.07 71.5,-45.88c10.73,-6.85 27.12,-17.37 36.43,-23.38c17.09,-11.02 20.96,-12.57 23.56,-9.43c2.57,3.09 0.29,6.13 -9.23,12.25c-5.09,3.28 -34.01,21.85 -64.26,41.26c-30.25,19.42 -57.92,37.19 -61.5,39.5c-3.58,2.3 -15.5,9.95 -26.5,16.99c-11,7.05 -23.6,15.14 -28,17.99c-4.4,2.85 -22.62,14.57 -40.5,26.04c-17.88,11.47 -45.57,29.24 -61.54,39.5zm235.71,-436.67c-2,1.81 -2.96,1.88 -8.17,0.56c-1.92,-0.49 -21.95,-4.72 -44.5,-9.41c-22.55,-4.69 -47.3,-9.85 -55,-11.47c-7.7,-1.62 -31.33,-6.58 -52.5,-11.02c-21.18,-4.44 -42.55,-8.95 -47.5,-10.03c-4.95,-1.08 -17.77,-3.78 -28.5,-6c-10.73,-2.22 -24,-4.96 -29.5,-6.1c-13.05,-2.71 -16.51,-5.84 -11.48,-10.4c0.36,-0.32 0.63,-0.6 0.94,-0.81c1.64,-1.11 4.42,-0.52 26.21,4.1c1.02,0.21 2.08,0.44 3.18,0.67c29.27,6.2 35.64,7.54 57.15,12.02c11.55,2.41 34.95,7.31 52,10.9c17.05,3.59 37.75,7.93 46,9.65c8.25,1.72 24.45,5.11 36,7.53c50.82,10.63 56.9,11.72 57.49,14.16c0.08,0.33 0.06,0.68 0.04,1.09c-0.02,0.21 -0.03,0.43 -0.03,0.68c0,1.22 -0.82,2.96 -1.83,3.88zm416.33,78.08c1.95,0.8 3.5,0.55 3.5,-0.57c0,-1.85 -26.41,-44.85 -27.55,-44.86c-0.58,0 -3.73,1.73 -7,3.84c-13.21,8.53 -36.12,22.8 -38.7,24.11c-1.51,0.76 -2.75,1.65 -2.75,1.97c0,0.32 5.07,1.57 11.25,2.78c17.96,3.51 60.15,12.28 61.25,12.73z" fill="#000000" id="svg_3"/>
  <path stroke="null" d="m686.86324,210.53297c-5.13,-1.04 -9.8,-1.98 -13.47,-2.69c-6.18,-1.21 -11.25,-2.46 -11.25,-2.78c0,-0.32 1.24,-1.21 2.75,-1.97c2.58,-1.31 25.49,-15.58 38.7,-24.11c0.42,-0.27 0.83,-0.53 1.24,-0.79c-2.68,1.75 -8.09,5.21 -13.19,8.43c-24.55,15.51 -27.72,17.7 -26.83,18.59c0.58,0.58 6.56,2.05 22.05,5.32zm23.69,-35.38c0.01,0 0.03,-0.01 0.04,-0.01c0.58,0.01 7.68,11.1 14.53,22.27c-6.81,-11.07 -13.87,-22.08 -14.57,-22.26zm21.14,44.72c-2.96,-0.65 -7.92,-1.71 -13.83,-2.95c5.65,1.16 10.69,2.23 13.83,2.95zm5.67,1.09c0.45,-0.21 0.78,-0.54 0.78,-0.96c0,0.49 -0.29,0.81 -0.78,0.96zm-2.35,-0.25c-0.05,-0.01 -0.09,-0.03 -0.13,-0.05c0.05,0.02 0.1,0.04 0.13,0.05z" fill="#000000" id="svg_4"/>
 </g>

</svg>