<?xml version="1.0" encoding="UTF-8" standalone="no"?>
<svg xmlns="http://www.w3.org/2000/svg" width="92" height="92" viewBox="0 0 1024 1024" preserveAspectRatio="xMidYMid meet">
<g>
<path d="M 821.80 875.80 C821.08,876.52 817.58,877.00 813.00,877.00 C804.29,877.00 803.00,876.21 803.00,870.84 C803.00,868.09 803.54,866.78 805.00,866.00 C806.94,864.96 807.00,863.91 807.00,832.00 C807.00,799.81 806.95,799.05 804.95,797.97 C803.25,797.06 802.95,796.07 803.20,792.19 L 803.50 787.50 L 825.45 787.23 C847.26,786.96 847.43,786.98 852.66,789.53 C862.24,794.22 867.36,803.07 867.38,815.00 C867.39,824.08 864.42,830.77 857.90,836.35 L 853.73 839.92 L 858.61 852.02 C862.37,861.31 864.08,864.39 866.00,865.31 C867.91,866.23 868.57,867.42 868.81,870.33 C869.29,876.08 867.95,877.00 859.08,877.00 C854.44,877.00 850.92,876.52 850.20,875.80 C848.67,874.27 848.65,868.54 850.16,866.11 C851.12,864.59 850.55,862.36 846.96,853.63 L 842.59 843.00 L 819.00 843.00 L 819.00 853.96 C819.00,863.91 819.19,865.03 821.00,866.00 C823.30,867.23 823.83,873.77 821.80,875.80 ZM 356.37 873.89 C355.49,876.39 355.11,876.51 346.96,876.79 C337.41,877.11 336.00,876.41 336.00,871.37 C336.00,868.29 338.10,865.00 340.07,865.00 C340.62,865.00 341.00,851.69 341.00,832.11 L 341.00 799.23 L 338.50 797.59 C335.75,795.79 335.00,790.40 337.20,788.20 C338.70,786.70 377.76,786.53 383.07,788.00 C387.76,789.30 394.36,795.05 397.68,800.72 C399.78,804.29 400.44,806.95 400.80,813.15 C401.23,820.45 401.03,821.51 398.09,827.46 C396.18,831.35 393.41,835.09 391.08,836.94 L 387.23 839.98 L 392.37 852.48 C395.19,859.36 398.03,864.99 398.68,864.99 C402.29,865.01 404.59,873.01 401.80,875.80 C399.92,877.68 385.53,877.38 383.57,875.43 C381.54,873.39 381.56,869.14 383.62,866.87 C385.12,865.21 384.92,864.32 380.71,854.29 L 376.18 843.50 L 364.09 843.22 L 352.00 842.94 L 352.00 853.90 C352.00,863.98 352.16,864.92 354.00,865.50 C356.44,866.28 357.60,870.38 356.37,873.89 ZM 228.80 875.80 C226.92,877.68 212.53,877.38 210.57,875.43 C208.25,873.11 208.66,869.22 211.50,866.59 L 214.00 864.27 L 214.00 799.73 L 211.50 797.41 C208.84,794.95 208.35,792.09 210.04,788.93 C211.00,787.12 212.30,787.00 230.29,787.02 C251.35,787.05 255.05,787.85 261.34,793.81 C272.06,803.96 272.69,822.88 262.66,833.76 C255.93,841.06 252.40,842.37 238.25,842.82 L 226.00 843.21 L 226.00 854.07 C226.00,863.91 226.19,865.03 228.00,866.00 C230.30,867.23 230.83,873.77 228.80,875.80 ZM 631.80 875.80 C629.92,877.68 615.53,877.38 613.57,875.43 C611.10,872.96 611.58,868.32 614.50,866.41 L 617.00 864.77 L 617.00 799.73 L 614.50 797.41 C611.84,794.95 611.35,792.09 613.04,788.93 C614.00,787.12 615.31,787.00 633.34,787.00 C652.04,787.00 652.76,787.08 657.78,789.58 C673.87,797.60 677.96,819.67 665.90,833.38 C659.22,840.97 655.58,842.36 641.25,842.82 L 629.00 843.21 L 629.00 853.88 C629.00,863.32 629.23,864.75 631.00,866.27 C633.25,868.20 633.73,873.87 631.80,875.80 ZM 179.79 875.98 C173.05,878.96 164.70,879.41 157.91,877.16 C147.23,873.63 140.98,867.79 135.80,856.50 C133.64,851.80 133.50,850.26 133.50,831.00 L 133.50 810.50 L 136.61 804.00 C140.24,796.42 145.48,790.87 152.50,787.16 C156.89,784.83 158.66,784.51 167.00,784.51 C174.66,784.50 177.42,784.92 181.22,786.68 C186.98,789.34 193.93,796.30 196.48,801.97 C198.59,806.63 198.02,808.63 194.01,810.66 C190.78,812.30 188.11,810.76 184.50,805.15 C180.19,798.47 174.54,795.77 165.79,796.22 C157.05,796.66 151.70,800.14 147.75,807.94 C145.07,813.22 145.00,813.80 145.00,830.31 C145.00,840.13 145.48,848.87 146.14,851.08 C147.65,856.12 152.27,861.59 157.09,864.05 C168.43,869.83 178.39,866.38 187.30,853.58 C189.34,850.64 192.50,850.26 195.78,852.56 C198.89,854.74 198.55,857.70 194.52,863.70 C190.54,869.60 186.40,873.05 179.79,875.98 ZM 587.26 876.10 C574.61,881.53 559.42,877.85 549.60,866.98 C541.80,858.34 540.18,850.33 541.02,824.50 C541.46,811.10 541.88,807.77 543.63,804.00 C546.76,797.26 553.32,790.48 559.79,787.31 C564.83,784.83 566.61,784.50 575.00,784.50 C582.87,784.51 585.21,784.88 588.62,786.70 C594.56,789.88 598.93,793.83 602.17,798.93 C605.99,804.95 605.91,808.48 601.92,810.54 C599.11,811.99 598.64,811.99 596.42,810.54 C595.09,809.67 594.00,808.52 594.00,807.98 C594.00,806.14 586.50,798.69 583.28,797.35 C581.51,796.61 577.79,796.00 575.00,796.00 C566.10,796.00 559.08,800.31 554.66,808.50 C552.67,812.19 552.50,813.95 552.50,831.00 C552.50,848.06 552.67,849.81 554.66,853.50 C560.72,864.71 572.64,869.68 582.50,865.10 C587.32,862.86 590.23,860.18 593.54,854.93 C595.48,851.87 596.65,851.00 598.86,851.00 C602.15,851.00 605.00,853.71 605.00,856.85 C605.00,862.16 595.35,872.64 587.26,876.10 ZM 746.80 875.80 C744.92,877.68 730.53,877.38 728.57,875.43 C726.10,872.96 726.58,868.32 729.50,866.41 L 732.00 864.77 L 732.00 799.00 L 722.12 799.00 C713.15,799.00 712.19,799.18 711.72,800.95 C711.08,803.42 706.61,804.60 703.43,803.15 C701.23,802.15 701.00,801.44 701.00,795.72 C701.00,792.14 701.52,788.88 702.20,788.20 C703.09,787.31 712.46,787.00 738.16,787.00 C740.52,787.00 742.73,787.00 744.80,787.00 C766.94,786.98 772.93,786.97 774.49,789.60 C775.08,790.57 775.05,791.90 775.02,793.73 C775.01,794.19 775.00,794.69 775.00,795.21 C775.00,803.42 769.56,806.65 764.41,801.50 C762.10,799.20 761.19,799.00 752.70,799.00 L 743.50 799.00 L 743.78 831.75 C744.05,863.04 744.15,864.56 746.03,865.87 C748.28,867.44 748.78,873.82 746.80,875.80 ZM 695.80 875.80 C695.08,876.52 691.57,877.00 686.96,877.00 C680.82,877.00 678.98,876.64 677.65,875.17 C675.29,872.55 675.61,869.27 678.50,866.59 L 681.00 864.27 L 681.00 799.73 L 678.50 797.41 C675.84,794.95 675.35,792.09 677.04,788.93 C677.94,787.25 679.19,787.00 686.93,787.00 C696.56,787.00 697.00,787.27 697.00,793.09 C697.00,794.78 696.15,796.74 695.00,797.73 C693.08,799.38 693.00,800.68 693.00,832.19 C693.00,863.91 693.06,864.96 695.00,866.00 C697.30,867.23 697.83,873.77 695.80,875.80 ZM 297.80 875.80 C295.92,877.68 281.53,877.38 279.57,875.43 C277.10,872.96 277.58,868.32 280.50,866.41 L 283.00 864.77 L 283.00 799.23 L 280.50 797.59 C278.68,796.40 278.00,795.07 278.00,792.68 C278.00,787.77 279.42,787.00 288.50,787.00 C293.47,787.00 297.06,787.46 297.80,788.20 C300.47,790.87 298.31,799.00 294.93,799.00 C294.38,799.00 294.00,812.36 294.00,832.00 C294.00,851.64 294.38,865.00 294.93,865.00 C298.31,865.00 300.47,873.13 297.80,875.80 ZM 479.34 835.50 L 478.60 836.60 C455.98,870.55 451.32,877.54 447.90,876.97 C446.97,876.82 446.14,876.12 445.07,875.25 C443.88,874.29 442.84,872.60 442.76,871.50 C442.68,870.37 454.57,851.44 469.93,828.25 C496.79,787.71 497.31,787.00 500.57,787.00 C503.88,787.00 507.00,789.78 507.00,792.72 C507.00,793.43 494.55,812.68 479.34,835.50 ZM 326.80 875.80 C324.92,877.68 310.53,877.38 308.57,875.43 C306.10,872.96 306.58,868.32 309.50,866.41 L 312.00 864.77 L 312.00 799.23 L 309.50 797.59 C307.68,796.40 307.00,795.07 307.00,792.68 C307.00,787.77 308.42,787.00 317.50,787.00 C322.47,787.00 326.06,787.46 326.80,788.20 C328.96,790.36 328.24,795.67 325.50,797.82 L 323.00 799.79 L 323.00 832.39 C323.00,851.79 323.38,865.00 323.93,865.00 C327.31,865.00 329.47,873.13 326.80,875.80 ZM 797.80 875.80 C795.92,877.68 781.53,877.38 779.57,875.43 C777.10,872.96 777.58,868.32 780.50,866.41 L 783.00 864.77 L 783.00 799.23 L 780.50 797.59 C778.68,796.40 778.00,795.07 778.00,792.68 C778.00,787.77 779.42,787.00 788.50,787.00 C793.47,787.00 797.06,787.46 797.80,788.20 C799.96,790.36 799.24,795.67 796.50,797.82 L 794.00 799.79 L 794.00 832.39 C794.00,851.79 794.38,865.00 794.93,865.00 C798.31,865.00 800.47,873.13 797.80,875.80 ZM 352.00 799.00 L 352.00 831.00 L 365.25 831.00 C380.05,830.99 383.24,829.95 386.92,823.89 C391.45,816.44 390.33,808.34 383.99,802.61 L 379.99 799.00 ZM 819.00 799.00 L 819.00 831.00 L 831.85 831.00 C843.56,831.00 845.00,830.80 848.08,828.73 C855.81,823.52 858.10,815.03 853.96,806.92 C850.47,800.07 847.54,799.01 832.25,799.00 ZM 628.80 815.00 L 629.10 831.00 L 639.09 831.00 C647.13,831.00 649.85,830.61 653.03,828.99 C657.91,826.49 661.00,820.88 661.00,814.49 C661.00,809.03 659.19,805.18 654.96,801.62 C651.99,799.12 651.31,799.00 640.17,799.00 L 628.50 799.00 ZM 226.00 799.00 L 226.00 831.00 L 236.10 831.00 C247.88,831.00 251.84,829.60 255.56,824.12 C257.39,821.43 258.00,819.21 258.00,815.22 C258.00,809.06 256.33,805.30 251.96,801.62 C249.00,799.13 248.29,799.00 237.42,799.00 Z" fill="rgb(66,64,65)"/>
<path d="M 898.78 928.24 L 893.50 930.50 L 513.50 930.73 L 133.50 930.96 L 126.77 928.66 C113.62,924.17 104.35,915.87 98.13,903.00 L 94.50 895.50 L 94.24 514.73 L 93.99 133.97 L 96.07 127.73 C101.34,111.97 113.44,100.73 129.69,96.49 C134.72,95.18 183.78,95.00 532.71,95.00 L 930.00 95.00 L 929.99 491.25 C929.98,518.95 929.98,544.76 929.99,568.79 C929.99,886.19 929.99,895.63 925.87,902.66 C925.43,903.41 924.94,904.13 924.41,905.19 C921.42,911.09 913.23,920.16 907.78,923.62 C905.74,924.92 901.69,927.00 898.78,928.24 ZM 128.80 926.07 C134.27,927.82 149.52,927.89 511.66,927.95 C879.10,928.00 888.98,927.95 894.91,926.11 C910.73,921.18 922.95,907.55 925.91,891.52 C926.67,887.44 927.00,838.52 927.00,732.21 C927.00,586.48 926.91,578.82 925.25,579.51 C924.29,579.90 922.73,580.45 921.79,580.72 C920.05,581.22 919.21,579.98 857.72,486.52 C848.49,472.49 840.73,460.45 840.47,459.76 C840.17,458.96 844.13,456.41 851.25,452.80 C864.19,446.24 872.98,440.53 885.00,430.86 C889.67,427.10 893.78,424.02 894.13,424.01 C894.47,424.00 901.59,434.35 909.96,447.00 C918.32,459.65 925.58,470.00 926.08,470.00 C926.59,470.00 927.00,467.70 927.00,464.88 C927.00,460.01 926.41,458.87 914.58,440.96 C907.75,430.62 901.64,421.19 901.01,420.01 C899.98,418.09 900.60,417.09 907.18,410.18 C911.21,405.96 917.32,398.76 920.75,394.19 L 927.00 385.88 L 927.00 148.68 L 922.82 143.09 C911.33,127.71 895.12,111.23 880.62,100.19 L 877.73 98.00 L 736.37 98.00 C658.61,98.00 595.00,98.34 595.00,98.75 C595.00,99.16 597.69,103.53 600.97,108.46 C601.59,109.39 602.15,110.22 602.66,110.96 C604.79,114.08 605.93,115.74 605.86,117.36 C605.76,119.60 603.31,121.73 597.93,127.50 C577.57,149.35 559.45,183.03 551.49,213.85 C548.56,225.19 546.00,239.13 546.00,243.75 C546.00,245.68 545.49,247.00 544.75,247.00 C544.07,247.00 528.21,243.83 509.50,239.95 C490.80,236.08 467.85,231.33 458.50,229.40 C409.35,219.25 402.90,218.18 402.51,216.02 C402.45,215.70 402.53,215.35 402.62,214.95 C402.69,214.65 402.76,214.32 402.79,213.95 C403.36,207.35 407.25,188.42 410.65,175.71 C417.00,152.01 424.29,132.50 434.83,111.00 C437.93,104.68 440.63,99.16 440.82,98.75 C441.35,97.60 138.22,97.82 132.12,98.98 C116.36,101.97 102.30,115.21 98.13,131.00 C97.21,134.45 97.00,224.05 97.22,515.00 L 97.50 894.50 L 99.85 900.32 C102.57,907.08 111.99,917.74 118.71,921.68 C121.12,923.09 125.66,925.07 128.80,926.07 ZM 783.50 621.97 C770.71,623.17 737.96,623.11 723.50,621.86 C697.86,619.65 659.26,611.17 635.50,602.51 C581.64,582.90 538.67,555.25 499.14,514.78 C486.72,502.06 478.96,492.96 468.31,478.66 C467.49,477.57 466.74,476.57 466.05,475.65 C461.66,469.81 459.82,467.37 460.31,465.54 C460.74,463.94 462.95,462.81 466.80,460.28 C471.04,457.50 498.23,439.65 527.24,420.61 C556.24,401.58 580.32,386.00 580.74,386.00 C581.16,386.00 583.58,388.81 586.13,392.25 C625.34,445.17 688.20,476.89 754.03,476.98 C777.14,477.01 796.96,473.89 818.44,466.84 C825.07,464.66 831.05,462.65 831.73,462.36 C832.49,462.05 838.24,469.88 846.64,482.67 C854.17,494.13 872.02,521.28 886.32,543.00 C900.61,564.72 912.49,583.21 912.72,584.07 C913.41,586.66 885.72,598.78 862.50,606.05 C834.45,614.84 812.58,619.24 783.50,621.97 ZM 482.71 441.35 C467.98,451.06 455.59,459.00 455.19,459.00 C454.07,459.00 441.92,438.02 435.07,424.25 C408.81,371.43 395.53,307.61 398.98,250.76 C399.55,241.27 400.30,231.56 400.63,229.20 C401.20,225.20 401.43,224.93 403.87,225.40 C405.32,225.68 411.90,227.03 418.50,228.41 C435.80,232.01 456.93,236.38 477.00,240.50 C498.21,244.85 515.34,248.42 532.00,251.97 L 544.50 254.62 L 545.13 273.56 C545.98,299.29 549.51,318.09 557.50,339.50 C561.32,349.73 569.98,367.85 574.41,374.87 C576.73,378.53 576.78,378.89 575.20,380.29 C573.73,381.58 553.63,394.89 519.00,417.49 C513.78,420.90 497.44,431.64 482.71,441.35 ZM 835.17 455.35 C834.17,456.26 833.07,457.00 832.73,457.00 C830.70,457.00 825.54,450.06 813.39,431.00 C805.86,419.17 793.53,399.83 786.00,388.00 C778.46,376.17 764.52,354.35 755.01,339.50 C745.51,324.65 735.25,308.54 732.23,303.69 C729.01,298.54 726.22,295.09 725.50,295.36 C724.24,295.85 706.55,306.95 660.00,336.49 C645.42,345.74 626.97,357.44 619.00,362.49 C611.03,367.54 600.86,373.99 596.41,376.83 C591.96,379.68 587.35,382.00 586.18,382.00 C583.25,382.00 580.53,377.75 581.86,375.26 C582.42,374.22 592.01,367.60 603.18,360.53 C702.52,297.70 713.34,290.63 711.43,289.83 C710.37,289.38 699.60,287.01 687.50,284.56 C661.83,279.35 602.83,267.25 585.50,263.64 C578.90,262.27 568.78,260.17 563.00,258.99 C551.28,256.58 548.34,254.77 549.38,250.61 C549.77,249.09 550.95,247.80 552.27,247.47 C553.49,247.17 569.80,250.06 588.50,253.91 C607.20,257.75 639.15,264.31 659.50,268.47 C679.85,272.63 700.52,276.94 705.43,278.04 C710.34,279.14 714.73,279.67 715.20,279.20 C715.66,278.74 707.43,264.89 696.90,248.43 C686.37,231.97 667.35,202.19 654.63,182.26 C651.05,176.65 647.79,171.55 644.81,166.89 C618.26,125.32 614.81,119.93 616.21,117.96 C616.57,117.45 617.26,117.17 617.96,116.54 C620.91,113.86 624.08,115.25 627.47,120.72 C629.10,123.35 642.39,144.18 657.01,167.00 C671.62,189.82 684.91,210.64 686.54,213.25 C689.73,218.38 715.82,259.35 722.66,270.00 C724.96,273.58 727.48,277.37 728.26,278.44 C729.61,280.29 730.93,279.58 756.84,263.12 C771.78,253.63 784.00,245.64 784.00,245.37 C784.00,244.22 783.00,242.55 719.85,138.35 C711.13,123.97 704.00,111.31 704.00,110.23 C704.00,107.49 706.36,105.79 709.63,106.18 C712.05,106.46 714.07,109.28 726.34,129.50 C753.25,173.81 777.34,213.61 784.89,226.22 C789.07,233.22 793.06,238.95 793.74,238.97 C794.88,239.00 808.38,230.55 884.50,182.18 C898.80,173.10 911.67,165.21 913.10,164.67 C920.04,162.02 922.83,170.30 916.28,174.12 C900.30,183.46 799.53,248.45 799.60,249.37 C799.66,250.04 805.68,260.47 812.97,272.55 C831.24,302.80 831.93,303.85 833.83,304.39 C834.75,304.65 853.72,308.55 876.00,313.07 C919.82,321.96 921.28,322.45 919.43,327.73 C919.11,328.64 918.95,329.38 918.53,329.91 C916.91,331.92 911.35,330.77 877.73,323.79 C875.60,323.35 873.37,322.89 871.01,322.40 C856.45,319.38 843.54,317.05 842.33,317.21 C840.27,317.48 840.52,318.14 846.23,327.50 C868.82,364.52 898.00,413.25 898.00,413.95 C898.00,414.41 897.18,415.80 896.17,417.04 C894.78,418.75 893.72,419.15 891.79,418.66 C889.76,418.15 886.42,413.36 875.47,395.26 C863.76,375.90 828.59,318.08 826.21,314.27 C825.26,312.75 741.51,295.15 740.42,296.25 C739.83,296.83 743.26,302.48 760.03,328.50 C804.57,397.65 837.00,449.42 837.00,451.38 C837.00,452.65 836.18,454.43 835.17,455.35 ZM 161.46 659.02 L 160.98 659.33 C127.61,680.76 124.39,682.83 122.06,682.09 C121.80,682.00 121.55,681.88 121.27,681.75 C118.77,680.59 117.65,678.08 118.56,675.69 C118.90,674.82 147.37,656.01 181.84,633.89 C216.30,611.76 248.10,591.35 252.50,588.51 C256.90,585.67 272.65,575.56 287.50,566.04 C302.35,556.52 317.65,546.68 321.50,544.18 C329.36,539.06 363.58,517.11 393.00,498.30 C403.73,491.45 420.12,480.93 429.43,474.92 C446.52,463.90 450.39,462.35 452.99,465.49 C455.56,468.58 453.28,471.62 443.76,477.74 C438.67,481.02 409.75,499.59 379.50,519.00 C349.25,538.42 321.58,556.19 318.00,558.50 C314.42,560.80 302.50,568.45 291.50,575.49 C280.50,582.54 267.90,590.63 263.50,593.48 C259.10,596.33 240.88,608.05 223.00,619.52 C205.12,630.99 177.43,648.76 161.46,659.02 ZM 397.17 222.35 C395.17,224.16 394.21,224.23 389.00,222.91 C387.08,222.42 367.05,218.19 344.50,213.50 C321.95,208.81 297.20,203.65 289.50,202.03 C281.80,200.41 258.17,195.45 237.00,191.01 C215.82,186.57 194.45,182.06 189.50,180.98 C184.55,179.90 171.73,177.20 161.00,174.98 C150.27,172.76 137.00,170.02 131.50,168.88 C118.45,166.17 114.99,163.04 120.02,158.48 C120.38,158.16 120.65,157.88 120.96,157.67 C122.60,156.56 125.38,157.15 147.17,161.77 C148.19,161.98 149.25,162.21 150.35,162.44 C179.62,168.64 185.99,169.98 207.50,174.46 C219.05,176.87 242.45,181.77 259.50,185.36 C276.55,188.95 297.25,193.29 305.50,195.01 C313.75,196.73 329.95,200.12 341.50,202.54 C392.32,213.17 398.40,214.26 398.99,216.70 C399.07,217.03 399.05,217.38 399.03,217.79 C399.01,218.00 399.00,218.22 399.00,218.47 C399.00,219.69 398.18,221.43 397.17,222.35 ZM 813.50 300.43 C815.45,301.23 817.00,300.98 817.00,299.86 C817.00,298.01 790.59,255.01 789.45,255.00 C788.87,255.00 785.72,256.73 782.45,258.84 C769.24,267.37 746.33,281.64 743.75,282.95 C742.24,283.71 741.00,284.60 741.00,284.92 C741.00,285.24 746.07,286.49 752.25,287.70 C770.21,291.21 812.40,299.98 813.50,300.43 Z" fill="rgb(163,187,15)"/>
<path d="M 765.72 290.39 C760.59,289.35 755.92,288.41 752.25,287.70 C746.07,286.49 741.00,285.24 741.00,284.92 C741.00,284.60 742.24,283.71 743.75,282.95 C746.33,281.64 769.24,267.37 782.45,258.84 C782.87,258.57 783.28,258.31 783.69,258.05 C781.01,259.80 775.60,263.26 770.50,266.48 C745.95,281.99 742.78,284.18 743.67,285.07 C744.25,285.65 750.23,287.12 765.72,290.39 ZM 789.41 255.01 C789.42,255.01 789.44,255.00 789.45,255.00 C790.03,255.01 797.13,266.10 803.98,277.27 C797.17,266.20 790.11,255.19 789.41,255.01 ZM 810.55 299.73 C807.59,299.08 802.63,298.02 796.72,296.78 C802.37,297.94 807.41,299.01 810.55,299.73 ZM 816.22 300.82 C816.67,300.61 817.00,300.28 817.00,299.86 C817.00,300.35 816.71,300.67 816.22,300.82 ZM 813.87 300.57 C813.82,300.56 813.78,300.54 813.74,300.52 C813.79,300.54 813.84,300.56 813.87,300.57 Z" fill="rgb(204,212,151)"/>
<path d="M 0.00 512.00 L 0.00 0.00 L 512.00 0.00 L 1024.00 0.00 L 1024.00 512.00 L 1024.00 1024.00 L 512.00 1024.00 L 0.00 1024.00 L 0.00 512.00 ZM 898.78 928.24 C901.69,927.00 905.74,924.92 907.78,923.62 C913.23,920.16 921.42,911.09 924.41,905.19 C930.38,893.40 929.97,923.67 929.99,491.25 L 930.00 95.00 L 532.71 95.00 C183.78,95.00 134.72,95.18 129.69,96.49 C113.44,100.73 101.34,111.97 96.07,127.73 L 93.99 133.97 L 94.24 514.73 L 94.50 895.50 L 98.13 903.00 C104.35,915.87 113.62,924.17 126.77,928.66 L 133.50 930.96 L 513.50 930.73 L 893.50 930.50 L 898.78 928.24 ZM 128.80 926.07 C125.66,925.07 121.12,923.09 118.71,921.68 C111.99,917.74 102.57,907.08 99.85,900.32 L 97.50 894.50 L 97.22 515.00 C97.00,224.05 97.21,134.45 98.13,131.00 C102.30,115.21 116.36,101.97 132.12,98.98 C138.22,97.82 441.35,97.60 440.82,98.75 C440.63,99.16 437.93,104.68 434.83,111.00 C424.29,132.50 417.00,152.01 410.65,175.71 C407.25,188.42 403.36,207.35 402.79,213.95 C402.43,218.24 396.59,216.62 458.50,229.40 C467.85,231.33 490.80,236.08 509.50,239.95 C528.21,243.83 544.07,247.00 544.75,247.00 C545.49,247.00 546.00,245.68 546.00,243.75 C546.00,239.13 548.56,225.19 551.49,213.85 C559.45,183.03 577.57,149.35 597.93,127.50 C608.11,116.59 607.78,118.68 600.97,108.46 C597.69,103.53 595.00,99.16 595.00,98.75 C595.00,98.34 658.61,98.00 736.37,98.00 L 877.73 98.00 L 880.62 100.19 C895.12,111.23 911.33,127.71 922.82,143.09 L 927.00 148.68 L 927.00 267.28 L 927.00 385.88 L 920.75 394.19 C917.32,398.76 911.21,405.96 907.18,410.18 C900.60,417.09 899.98,418.09 901.01,420.01 C901.64,421.19 907.75,430.62 914.58,440.96 C926.41,458.87 927.00,460.01 927.00,464.88 C927.00,467.70 926.59,470.00 926.08,470.00 C925.58,470.00 918.32,459.65 909.96,447.00 C901.59,434.35 894.47,424.00 894.13,424.01 C893.78,424.02 889.67,427.10 885.00,430.86 C872.98,440.53 864.19,446.24 851.25,452.80 C844.13,456.41 840.17,458.96 840.47,459.76 C840.73,460.45 848.49,472.49 857.72,486.52 C919.21,579.98 920.05,581.22 921.79,580.72 C922.73,580.45 924.29,579.90 925.25,579.51 C926.91,578.82 927.00,586.48 927.00,732.21 C927.00,838.52 926.67,887.44 925.91,891.52 C922.95,907.55 910.73,921.18 894.91,926.11 C888.98,927.95 879.10,928.00 511.66,927.95 C149.52,927.89 134.27,927.82 128.80,926.07 ZM 179.79 875.98 C186.40,873.05 190.54,869.60 194.52,863.70 C198.55,857.70 198.89,854.74 195.78,852.56 C192.50,850.26 189.34,850.64 187.30,853.58 C178.39,866.38 168.43,869.83 157.09,864.05 C152.27,861.59 147.65,856.12 146.14,851.08 C145.48,848.87 145.00,840.13 145.00,830.31 C145.00,813.80 145.07,813.22 147.75,807.94 C151.70,800.14 157.05,796.66 165.79,796.22 C174.54,795.77 180.19,798.47 184.50,805.15 C188.11,810.76 190.78,812.30 194.01,810.66 C198.02,808.63 198.59,806.63 196.48,801.97 C193.93,796.30 186.98,789.34 181.22,786.68 C177.42,784.92 174.66,784.50 167.00,784.51 C158.66,784.51 156.89,784.83 152.50,787.16 C145.48,790.87 140.24,796.42 136.61,804.00 L 133.50 810.50 L 133.50 831.00 C133.50,850.26 133.64,851.80 135.80,856.50 C140.98,867.79 147.23,873.63 157.91,877.16 C164.70,879.41 173.05,878.96 179.79,875.98 ZM 587.26 876.10 C595.35,872.64 605.00,862.16 605.00,856.85 C605.00,853.71 602.15,851.00 598.86,851.00 C596.65,851.00 595.48,851.87 593.54,854.93 C590.23,860.18 587.32,862.86 582.50,865.10 C572.64,869.68 560.72,864.71 554.66,853.50 C552.67,849.81 552.50,848.06 552.50,831.00 C552.50,813.95 552.67,812.19 554.66,808.50 C559.08,800.31 566.10,796.00 575.00,796.00 C577.79,796.00 581.51,796.61 583.28,797.35 C586.50,798.69 594.00,806.14 594.00,807.98 C594.00,808.52 595.09,809.67 596.42,810.54 C598.64,811.99 599.11,811.99 601.92,810.54 C605.91,808.48 605.99,804.95 602.17,798.93 C598.93,793.83 594.56,789.88 588.62,786.70 C585.21,784.88 582.87,784.51 575.00,784.50 C566.61,784.50 564.83,784.83 559.79,787.31 C553.32,790.48 546.76,797.26 543.63,804.00 C541.88,807.77 541.46,811.10 541.02,824.50 C540.18,850.33 541.80,858.34 549.60,866.98 C559.42,877.85 574.61,881.53 587.26,876.10 ZM 228.80 875.80 C230.83,873.77 230.30,867.23 228.00,866.00 C226.19,865.03 226.00,863.91 226.00,854.07 L 226.00 843.21 L 238.25 842.82 C252.40,842.37 255.93,841.06 262.66,833.76 C272.69,822.88 272.06,803.96 261.34,793.81 C255.05,787.85 251.35,787.05 230.29,787.02 C212.30,787.00 211.00,787.12 210.04,788.93 C208.35,792.09 208.84,794.95 211.50,797.41 L 214.00 799.73 L 214.00 832.00 L 214.00 864.27 L 211.50 866.59 C208.66,869.22 208.25,873.11 210.57,875.43 C212.53,877.38 226.92,877.68 228.80,875.80 ZM 297.80 875.80 C300.47,873.13 298.31,865.00 294.93,865.00 C294.38,865.00 294.00,851.64 294.00,832.00 C294.00,812.36 294.38,799.00 294.93,799.00 C298.31,799.00 300.47,790.87 297.80,788.20 C297.06,787.46 293.47,787.00 288.50,787.00 C279.42,787.00 278.00,787.77 278.00,792.68 C278.00,795.07 278.68,796.40 280.50,797.59 L 283.00 799.23 L 283.00 832.00 L 283.00 864.77 L 280.50 866.41 C277.58,868.32 277.10,872.96 279.57,875.43 C281.53,877.38 295.92,877.68 297.80,875.80 ZM 326.80 875.80 C329.47,873.13 327.31,865.00 323.93,865.00 C323.38,865.00 323.00,851.79 323.00,832.39 L 323.00 799.79 L 325.50 797.82 C328.24,795.67 328.96,790.36 326.80,788.20 C326.06,787.46 322.47,787.00 317.50,787.00 C308.42,787.00 307.00,787.77 307.00,792.68 C307.00,795.07 307.68,796.40 309.50,797.59 L 312.00 799.23 L 312.00 832.00 L 312.00 864.77 L 309.50 866.41 C306.58,868.32 306.10,872.96 308.57,875.43 C310.53,877.38 324.92,877.68 326.80,875.80 ZM 356.37 873.89 C357.60,870.38 356.44,866.28 354.00,865.50 C352.16,864.92 352.00,863.98 352.00,853.90 L 352.00 842.94 L 364.09 843.22 L 376.18 843.50 L 380.71 854.29 C384.92,864.32 385.12,865.21 383.62,866.87 C381.56,869.14 381.54,873.39 383.57,875.43 C385.53,877.38 399.92,877.68 401.80,875.80 C404.59,873.01 402.29,865.01 398.68,864.99 C398.03,864.99 395.19,859.36 392.37,852.48 L 387.23 839.98 L 391.08 836.94 C393.41,835.09 396.18,831.35 398.09,827.46 C401.03,821.51 401.23,820.45 400.80,813.15 C400.44,806.95 399.78,804.29 397.68,800.72 C394.36,795.05 387.76,789.30 383.07,788.00 C377.76,786.53 338.70,786.70 337.20,788.20 C335.00,790.40 335.75,795.79 338.50,797.59 L 341.00 799.23 L 341.00 832.11 C341.00,851.69 340.62,865.00 340.07,865.00 C338.10,865.00 336.00,868.29 336.00,871.37 C336.00,876.41 337.41,877.11 346.96,876.79 C355.11,876.51 355.49,876.39 356.37,873.89 ZM 479.34 835.50 C494.55,812.68 507.00,793.43 507.00,792.72 C507.00,789.78 503.88,787.00 500.57,787.00 C497.31,787.00 496.79,787.71 469.93,828.25 C454.57,851.44 442.68,870.37 442.76,871.50 C442.84,872.60 443.88,874.29 445.07,875.25 C450.15,879.38 449.86,879.72 479.34,835.50 ZM 631.80 875.80 C633.73,873.87 633.25,868.20 631.00,866.27 C629.23,864.75 629.00,863.32 629.00,853.88 L 629.00 843.21 L 641.25 842.82 C655.58,842.36 659.22,840.97 665.90,833.38 C677.96,819.67 673.87,797.60 657.78,789.58 C652.76,787.08 652.04,787.00 633.34,787.00 C615.31,787.00 614.00,787.12 613.04,788.93 C611.35,792.09 611.84,794.95 614.50,797.41 L 617.00 799.73 L 617.00 832.25 L 617.00 864.77 L 614.50 866.41 C611.58,868.32 611.10,872.96 613.57,875.43 C615.53,877.38 629.92,877.68 631.80,875.80 ZM 695.80 875.80 C697.83,873.77 697.30,867.23 695.00,866.00 C693.06,864.96 693.00,863.91 693.00,832.19 C693.00,800.68 693.08,799.38 695.00,797.73 C696.15,796.74 697.00,794.78 697.00,793.09 C697.00,787.27 696.56,787.00 686.93,787.00 C679.19,787.00 677.94,787.25 677.04,788.93 C675.35,792.09 675.84,794.95 678.50,797.41 L 681.00 799.73 L 681.00 832.00 L 681.00 864.27 L 678.50 866.59 C675.61,869.27 675.29,872.55 677.65,875.17 C678.98,876.64 680.82,877.00 686.96,877.00 C691.57,877.00 695.08,876.52 695.80,875.80 ZM 746.80 875.80 C748.78,873.82 748.28,867.44 746.03,865.87 C744.15,864.56 744.05,863.04 743.78,831.75 L 743.50 799.00 L 752.70 799.00 C761.19,799.00 762.10,799.20 764.41,801.50 C769.56,806.65 775.00,803.42 775.00,795.21 C775.00,786.44 777.50,787.00 738.16,787.00 C712.46,787.00 703.09,787.31 702.20,788.20 C701.52,788.88 701.00,792.14 701.00,795.72 C701.00,801.44 701.23,802.15 703.43,803.15 C706.61,804.60 711.08,803.42 711.72,800.95 C712.19,799.18 713.15,799.00 722.12,799.00 L 732.00 799.00 L 732.00 831.89 L 732.00 864.77 L 729.50 866.41 C726.58,868.32 726.10,872.96 728.57,875.43 C730.53,877.38 744.92,877.68 746.80,875.80 ZM 797.80 875.80 C800.47,873.13 798.31,865.00 794.93,865.00 C794.38,865.00 794.00,851.79 794.00,832.39 L 794.00 799.79 L 796.50 797.82 C799.24,795.67 799.96,790.36 797.80,788.20 C797.06,787.46 793.47,787.00 788.50,787.00 C779.42,787.00 778.00,787.77 778.00,792.68 C778.00,795.07 778.68,796.40 780.50,797.59 L 783.00 799.23 L 783.00 832.00 L 783.00 864.77 L 780.50 866.41 C777.58,868.32 777.10,872.96 779.57,875.43 C781.53,877.38 795.92,877.68 797.80,875.80 ZM 821.80 875.80 C823.83,873.77 823.30,867.23 821.00,866.00 C819.19,865.03 819.00,863.91 819.00,853.96 L 819.00 843.00 L 830.80 843.00 L 842.59 843.00 L 846.96 853.63 C850.55,862.36 851.12,864.59 850.16,866.11 C848.65,868.54 848.67,874.27 850.20,875.80 C850.92,876.52 854.44,877.00 859.08,877.00 C867.95,877.00 869.29,876.08 868.81,870.33 C868.57,867.42 867.91,866.23 866.00,865.31 C864.08,864.39 862.37,861.31 858.61,852.02 L 853.73 839.92 L 857.90 836.35 C864.42,830.77 867.39,824.08 867.38,815.00 C867.36,803.07 862.24,794.22 852.66,789.53 C847.43,786.98 847.26,786.96 825.45,787.23 L 803.50 787.50 L 803.20 792.19 C802.95,796.07 803.25,797.06 804.95,797.97 C806.95,799.05 807.00,799.81 807.00,832.00 C807.00,863.91 806.94,864.96 805.00,866.00 C803.54,866.78 803.00,868.09 803.00,870.84 C803.00,876.21 804.29,877.00 813.00,877.00 C817.58,877.00 821.08,876.52 821.80,875.80 ZM 161.46 659.02 C177.43,648.76 205.12,630.99 223.00,619.52 C240.88,608.05 259.10,596.33 263.50,593.48 C267.90,590.63 280.50,582.54 291.50,575.49 C302.50,568.45 314.42,560.80 318.00,558.50 C321.58,556.19 349.25,538.42 379.50,519.00 C409.75,499.59 438.67,481.02 443.76,477.74 C453.28,471.62 455.56,468.58 452.99,465.49 C450.39,462.35 446.52,463.90 429.43,474.92 C420.12,480.93 403.73,491.45 393.00,498.30 C363.58,517.11 329.36,539.06 321.50,544.18 C317.65,546.68 302.35,556.52 287.50,566.04 C272.65,575.56 256.90,585.67 252.50,588.51 C248.10,591.35 216.30,611.76 181.84,633.89 C147.37,656.01 118.90,674.82 118.56,675.69 C117.65,678.08 118.77,680.59 121.27,681.75 C124.06,683.05 123.88,683.15 161.46,659.02 ZM 783.50 621.97 C812.58,619.24 834.45,614.84 862.50,606.05 C885.72,598.78 913.41,586.66 912.72,584.07 C912.49,583.21 900.61,564.72 886.32,543.00 C872.02,521.28 854.17,494.13 846.64,482.67 C838.24,469.88 832.49,462.05 831.73,462.36 C831.05,462.65 825.07,464.66 818.44,466.84 C796.96,473.89 777.14,477.01 754.03,476.98 C688.20,476.89 625.34,445.17 586.13,392.25 C583.58,388.81 581.16,386.00 580.74,386.00 C580.32,386.00 556.24,401.58 527.24,420.61 C498.23,439.65 471.04,457.50 466.80,460.28 C457.87,466.14 457.74,464.48 468.31,478.66 C478.96,492.96 486.72,502.06 499.14,514.78 C538.67,555.25 581.64,582.90 635.50,602.51 C659.26,611.17 697.86,619.65 723.50,621.86 C737.96,623.11 770.71,623.17 783.50,621.97 ZM 482.71 441.35 C497.44,431.64 513.78,420.90 519.00,417.49 C553.63,394.89 573.73,381.58 575.20,380.29 C576.78,378.89 576.73,378.53 574.41,374.87 C569.98,367.85 561.32,349.73 557.50,339.50 C549.51,318.09 545.98,299.29 545.13,273.56 L 544.50 254.62 L 532.00 251.97 C515.34,248.42 498.21,244.85 477.00,240.50 C456.93,236.38 435.80,232.01 418.50,228.41 C411.90,227.03 405.32,225.68 403.87,225.40 C401.43,224.93 401.20,225.20 400.63,229.20 C400.30,231.56 399.55,241.27 398.98,250.76 C395.53,307.61 408.81,371.43 435.07,424.25 C441.92,438.02 454.07,459.00 455.19,459.00 C455.59,459.00 467.98,451.06 482.71,441.35 ZM 835.17 455.35 C836.18,454.43 837.00,452.65 837.00,451.38 C837.00,449.42 804.57,397.65 760.03,328.50 C743.26,302.48 739.83,296.83 740.42,296.25 C741.51,295.15 825.26,312.75 826.21,314.27 C828.59,318.08 863.76,375.90 875.47,395.26 C886.42,413.36 889.76,418.15 891.79,418.66 C893.72,419.15 894.78,418.75 896.17,417.04 C897.18,415.80 898.00,414.41 898.00,413.95 C898.00,413.25 868.82,364.52 846.23,327.50 C840.52,318.14 840.27,317.48 842.33,317.21 C843.54,317.05 856.45,319.38 871.01,322.40 C920.36,332.63 917.81,332.35 919.43,327.73 C921.28,322.45 919.82,321.96 876.00,313.07 C853.72,308.55 834.75,304.65 833.83,304.39 C831.93,303.85 831.24,302.80 812.97,272.55 C805.68,260.47 799.66,250.04 799.60,249.37 C799.53,248.45 900.30,183.46 916.28,174.12 C922.83,170.30 920.04,162.02 913.10,164.67 C911.67,165.21 898.80,173.10 884.50,182.18 C808.38,230.55 794.88,239.00 793.74,238.97 C793.06,238.95 789.07,233.22 784.89,226.22 C777.34,213.61 753.25,173.81 726.34,129.50 C714.07,109.28 712.05,106.46 709.63,106.18 C706.36,105.79 704.00,107.49 704.00,110.23 C704.00,111.31 711.13,123.97 719.85,138.35 C783.00,242.55 784.00,244.22 784.00,245.37 C784.00,245.64 771.78,253.63 756.84,263.12 C730.93,279.58 729.61,280.29 728.26,278.44 C727.48,277.37 724.96,273.58 722.66,270.00 C715.82,259.35 689.73,218.38 686.54,213.25 C684.91,210.64 671.62,189.82 657.01,167.00 C642.39,144.18 629.10,123.35 627.47,120.72 C624.08,115.25 620.91,113.86 617.96,116.54 C614.29,119.86 610.75,113.51 654.63,182.26 C667.35,202.19 686.37,231.97 696.90,248.43 C707.43,264.89 715.66,278.74 715.20,279.20 C714.73,279.67 710.34,279.14 705.43,278.04 C700.52,276.94 679.85,272.63 659.50,268.47 C639.15,264.31 607.20,257.75 588.50,253.91 C569.80,250.06 553.49,247.17 552.27,247.47 C550.95,247.80 549.77,249.09 549.38,250.61 C548.34,254.77 551.28,256.58 563.00,258.99 C568.78,260.17 578.90,262.27 585.50,263.64 C602.83,267.25 661.83,279.35 687.50,284.56 C699.60,287.01 710.37,289.38 711.43,289.83 C713.34,290.63 702.52,297.70 603.18,360.53 C592.01,367.60 582.42,374.22 581.86,375.26 C580.53,377.75 583.25,382.00 586.18,382.00 C587.35,382.00 591.96,379.68 596.41,376.83 C600.86,373.99 611.03,367.54 619.00,362.49 C626.97,357.44 645.42,345.74 660.00,336.49 C706.55,306.95 724.24,295.85 725.50,295.36 C726.22,295.09 729.01,298.54 732.23,303.69 C735.25,308.54 745.51,324.65 755.01,339.50 C764.52,354.35 778.46,376.17 786.00,388.00 C793.53,399.83 805.86,419.17 813.39,431.00 C825.54,450.06 830.70,457.00 832.73,457.00 C833.07,457.00 834.17,456.26 835.17,455.35 ZM 397.17 222.35 C398.18,221.43 399.00,219.69 399.00,218.47 C399.00,214.31 402.80,215.36 341.50,202.54 C329.95,200.12 313.75,196.73 305.50,195.01 C297.25,193.29 276.55,188.95 259.50,185.36 C242.45,181.77 219.05,176.87 207.50,174.46 C185.99,169.98 179.62,168.64 150.35,162.44 C121.09,156.24 122.32,156.40 120.02,158.48 C114.99,163.04 118.45,166.17 131.50,168.88 C137.00,170.02 150.27,172.76 161.00,174.98 C171.73,177.20 184.55,179.90 189.50,180.98 C194.45,182.06 215.82,186.57 237.00,191.01 C258.17,195.45 281.80,200.41 289.50,202.03 C297.20,203.65 321.95,208.81 344.50,213.50 C367.05,218.19 387.08,222.42 389.00,222.91 C394.21,224.23 395.17,224.16 397.17,222.35 ZM 226.00 815.00 L 226.00 799.00 L 237.42 799.00 C248.29,799.00 249.00,799.13 251.96,801.62 C256.33,805.30 258.00,809.06 258.00,815.22 C258.00,819.21 257.39,821.43 255.56,824.12 C251.84,829.60 247.88,831.00 236.10,831.00 L 226.00 831.00 L 226.00 815.00 ZM 352.00 815.00 L 352.00 799.00 L 366.00 799.00 L 379.99 799.00 L 383.99 802.61 C390.33,808.34 391.45,816.44 386.92,823.89 C383.24,829.95 380.05,830.99 365.25,831.00 L 352.00 831.00 L 352.00 815.00 ZM 628.80 815.00 L 628.50 799.00 L 640.17 799.00 C651.31,799.00 651.99,799.12 654.96,801.62 C659.19,805.18 661.00,809.03 661.00,814.49 C661.00,820.88 657.91,826.49 653.03,828.99 C649.85,830.61 647.13,831.00 639.09,831.00 L 629.10 831.00 L 628.80 815.00 ZM 819.00 815.00 L 819.00 799.00 L 832.25 799.00 C847.54,799.01 850.47,800.07 853.96,806.92 C858.10,815.03 855.81,823.52 848.08,828.73 C845.00,830.80 843.56,831.00 831.85,831.00 L 819.00 831.00 L 819.00 815.00 ZM 813.92 300.60 C813.69,300.38 805.62,298.59 796.00,296.63 C757.42,288.78 744.53,285.93 743.67,285.07 C742.78,284.18 745.95,281.99 770.50,266.48 C776.55,262.66 783.03,258.51 784.89,257.27 C786.75,256.02 788.78,255.00 789.39,255.00 C790.57,255.01 817.00,297.95 817.00,299.86 C817.00,300.94 814.81,301.46 813.92,300.60 Z" fill="rgb(254,254,254)"/>
</g>
</svg>