<svg xmlns="http://www.w3.org/2000/svg" width="247" height="45" fill="none"><g fill="#000" clip-path="url(#a)"><path d="M0 45.5h12.535V2.171H0V45.5Zm31.817-32.735h8.675V.523S39.94.5 39.633.5c-11.274 0-20.35 9.13-20.35 20.388V45.5h12.535V12.765ZM45.024 44.889c-1.139-.407-2.104-.878-2.892-1.416-.788-.537-1.383-1-1.779-1.387l2.354-3.794c.424.37.95.784 1.58 1.245.629.463 1.343.864 2.149 1.202a6.604 6.604 0 0 0 2.607.509c.982 0 1.793-.23 2.43-.694.638-.463.957-1.157.957-2.08 0-.736-.208-1.339-.623-1.805-.416-.466-1.022-.898-1.822-1.296s-1.77-.842-2.914-1.33c-.84-.379-1.626-.83-2.354-1.36a6.383 6.383 0 0 1-1.76-1.918c-.444-.75-.666-1.631-.666-2.64 0-1.191.314-2.308.943-3.357.629-1.049 1.508-1.896 2.644-2.541 1.133-.645 2.453-.97 3.956-.97.851 0 1.702.114 2.553.342a12.69 12.69 0 0 1 2.383.892c.737.37 1.36.77 1.87 1.205l-1.913 3.596c-.606-.509-1.332-.95-2.177-1.316a6.51 6.51 0 0 0-2.616-.552c-1.002 0-1.78.256-2.331.765-.552.509-.828 1.123-.828 1.84 0 .528.145.954.432 1.281.288.327.692.605 1.213.841a67.5 67.5 0 0 0 1.801.78c1.466.602 2.739 1.219 3.823 1.847 1.082.628 1.919 1.378 2.51 2.25.59.873.886 1.99.886 3.35 0 1.5-.359 2.782-1.07 3.842-.715 1.063-1.708 1.873-2.986 2.436-1.275.563-2.764.841-4.466.841-1.455 0-2.753-.202-3.891-.608h-.003ZM67.647 44.565a11.755 11.755 0 0 1-3.757-2.598 12.158 12.158 0 0 1-2.53-3.866c-.61-1.466-.914-3.041-.914-4.72 0-1.68.304-3.255.913-4.722a12.236 12.236 0 0 1 2.53-3.865 11.758 11.758 0 0 1 3.758-2.598c1.426-.623 2.957-.936 4.594-.936 1.637 0 3.165.313 4.594.936a11.758 11.758 0 0 1 3.757 2.598 12.187 12.187 0 0 1 2.53 3.865c.61 1.467.914 3.041.914 4.721 0 1.68-.304 3.255-.913 4.721a12.237 12.237 0 0 1-2.53 3.866 11.755 11.755 0 0 1-3.758 2.598c-1.426.622-2.957.935-4.594.935-1.637 0-3.165-.313-4.594-.935Zm8.138-4.474c1.03-.66 1.838-1.572 2.425-2.732.586-1.16.88-2.486.88-3.979 0-1.492-.294-2.817-.88-3.98-.587-1.159-1.395-2.071-2.425-2.73-1.03-.66-2.212-.993-3.544-.993-1.332 0-2.502.33-3.538.992-1.036.66-1.845 1.572-2.43 2.732-.587 1.163-.88 2.487-.88 3.98 0 1.492.293 2.816.88 3.978.585 1.163 1.397 2.073 2.43 2.732 1.036.66 2.214.992 3.538.992 1.323 0 2.513-.33 3.544-.992ZM88.702 21.684h4.594v19.34h8.451v4.021H88.702V21.684ZM107.345 43.291c-1.502-1.472-2.254-3.646-2.254-6.525v-15.08h4.594V35.45c0 1.972.339 3.39 1.013 4.254.675.864 1.774 1.297 3.297 1.297 1.522 0 2.621-.432 3.296-1.297.674-.864 1.013-2.282 1.013-4.255V21.688h4.594v15.079c0 2.879-.749 5.053-2.249 6.526-1.497 1.472-3.717 2.208-6.657 2.208-2.941 0-5.147-.736-6.649-2.209h.002ZM134.454 44.565a12.912 12.912 0 0 1-4.09-2.598 12.193 12.193 0 0 1-2.764-3.857c-.666-1.464-.999-3.036-.999-4.716 0-1.68.333-3.268.999-4.735a12.196 12.196 0 0 1 2.764-3.865 12.915 12.915 0 0 1 4.085-2.598c1.545-.623 3.196-.936 4.955-.936 1.437 0 2.807.202 4.113.609 1.304.406 2.414.94 3.333 1.6l-1.984 3.894c-.634-.5-1.406-.892-2.317-1.174a9.487 9.487 0 0 0-2.843-.426c-1.54 0-2.926.335-4.156 1.006-1.23.67-2.197 1.58-2.906 2.731-.709 1.152-1.065 2.445-1.065 3.88 0 1.436.356 2.729 1.065 3.88.709 1.151 1.676 2.06 2.906 2.732 1.23.67 2.613 1.006 4.156 1.006.982 0 1.93-.142 2.843-.427.911-.284 1.685-.673 2.317-1.173l1.984 3.893c-.888.632-1.981 1.16-3.276 1.578-1.295.42-2.676.631-4.139.631-1.767 0-3.427-.313-4.975-.935h-.006ZM150.573 21.684h4.594v23.361h-4.594V21.684ZM167.048 44.565a11.756 11.756 0 0 1-3.757-2.598 12.17 12.17 0 0 1-2.531-3.866c-.609-1.466-.913-3.041-.913-4.72 0-1.68.304-3.255.913-4.722a12.251 12.251 0 0 1 2.531-3.865 11.76 11.76 0 0 1 3.757-2.598c1.426-.623 2.958-.936 4.594-.936 1.637 0 3.165.313 4.594.936a11.749 11.749 0 0 1 3.757 2.598 12.183 12.183 0 0 1 2.531 3.865c.609 1.467.914 3.041.914 4.721 0 1.68-.305 3.255-.914 4.721a12.235 12.235 0 0 1-2.531 3.866 11.745 11.745 0 0 1-3.757 2.598c-1.426.622-2.957.935-4.594.935-1.636 0-3.165-.313-4.594-.935Zm8.138-4.474c1.03-.66 1.839-1.572 2.425-2.732.586-1.16.88-2.486.88-3.979 0-1.492-.294-2.817-.88-3.98-.586-1.159-1.395-2.071-2.425-2.73-1.03-.66-2.212-.993-3.544-.993-1.332 0-2.502.33-3.538.992-1.036.663-1.844 1.572-2.431 2.732-.586 1.163-.879 2.487-.879 3.98 0 1.492.293 2.816.879 3.978.587 1.163 1.398 2.073 2.431 2.732 1.036.66 2.215.992 3.538.992 1.324 0 2.514-.33 3.544-.992ZM188.103 21.684h4.594l10.082 15.715V21.684h4.594v23.361h-4.594L192.697 29.33v15.715h-4.594V21.684ZM213.751 21.684h13.017v4.022h-8.422v5.622h8.08v4.022h-8.08v5.676h8.422v4.022h-13.017V21.684ZM234.587 44.889c-1.139-.407-2.104-.878-2.892-1.416-.788-.537-1.383-1-1.779-1.387l2.354-3.794c.424.37.951.784 1.58 1.245.629.463 1.343.864 2.149 1.202a6.599 6.599 0 0 0 2.607.509c.982 0 1.793-.23 2.431-.694.637-.463.956-1.157.956-2.08 0-.736-.208-1.339-.623-1.805-.416-.466-1.022-.898-1.822-1.296s-1.77-.842-2.915-1.33a13.27 13.27 0 0 1-2.353-1.36 6.384 6.384 0 0 1-1.76-1.918c-.444-.75-.666-1.631-.666-2.64 0-1.191.313-2.308.943-3.357.629-1.049 1.508-1.896 2.644-2.541 1.133-.645 2.453-.97 3.956-.97.851 0 1.702.114 2.554.342.851.227 1.645.526 2.382.892.737.37 1.36.77 1.87 1.205l-1.913 3.596c-.606-.509-1.332-.95-2.177-1.316a6.514 6.514 0 0 0-2.616-.552c-1.002 0-1.779.256-2.331.765s-.829 1.123-.829 1.84c0 .528.146.954.433 1.281.288.327.692.605 1.213.841.521.236 1.121.495 1.801.78 1.466.602 2.739 1.219 3.823 1.847 1.082.628 1.919 1.378 2.511 2.25.589.873.885 1.99.885 3.35 0 1.5-.359 2.782-1.07 3.842-.715 1.063-1.708 1.873-2.986 2.436-1.275.563-2.764.841-4.466.841-1.455 0-2.753-.202-3.891-.608h-.003Z"/></g><defs><clipPath id="a"><path fill="#fff" d="M0 .5h247v45H0z"/></clipPath></defs></svg>